<svg width="300" height="80" xmlns="http://www.w3.org/2000/svg"><rect width="100%" height="100%" fill="white"/><rect x="12" y="5" width="2" height="50" fill="black"/><rect x="18" y="5" width="2" height="50" fill="black"/><rect x="20" y="5" width="2" height="50" fill="black"/><rect x="28" y="5" width="2" height="50" fill="black"/><rect x="34" y="5" width="2" height="50" fill="black"/><rect x="36" y="5" width="2" height="50" fill="black"/><rect x="42" y="5" width="2" height="50" fill="black"/><rect x="48" y="5" width="2" height="50" fill="black"/><rect x="50" y="5" width="2" height="50" fill="black"/><rect x="52" y="5" width="2" height="50" fill="black"/><rect x="58" y="5" width="2" height="50" fill="black"/><rect x="60" y="5" width="2" height="50" fill="black"/><rect x="62" y="5" width="2" height="50" fill="black"/><rect x="66" y="5" width="2" height="50" fill="black"/><rect x="68" y="5" width="2" height="50" fill="black"/><rect x="74" y="5" width="2" height="50" fill="black"/><rect x="82" y="5" width="2" height="50" fill="black"/><rect x="84" y="5" width="2" height="50" fill="black"/><rect x="92" y="5" width="2" height="50" fill="black"/><rect x="98" y="5" width="2" height="50" fill="black"/><rect x="100" y="5" width="2" height="50" fill="black"/><rect x="106" y="5" width="2" height="50" fill="black"/><rect x="114" y="5" width="2" height="50" fill="black"/><rect x="116" y="5" width="2" height="50" fill="black"/><text x="150" y="75" text-anchor="middle" font-family="Arial, sans-serif" font-size="12" fill="black">2297121</text></svg>