<svg width="300" height="80" xmlns="http://www.w3.org/2000/svg"><rect width="100%" height="100%" fill="white"/><rect x="10" y="5" width="2" height="50" fill="black"/><rect x="12" y="5" width="2" height="50" fill="black"/><rect x="18" y="5" width="2" height="50" fill="black"/><rect x="22" y="5" width="2" height="50" fill="black"/><rect x="26" y="5" width="2" height="50" fill="black"/><rect x="32" y="5" width="2" height="50" fill="black"/><rect x="36" y="5" width="2" height="50" fill="black"/><rect x="38" y="5" width="2" height="50" fill="black"/><rect x="44" y="5" width="2" height="50" fill="black"/><rect x="50" y="5" width="2" height="50" fill="black"/><rect x="52" y="5" width="2" height="50" fill="black"/><rect x="54" y="5" width="2" height="50" fill="black"/><rect x="68" y="5" width="2" height="50" fill="black"/><rect x="78" y="5" width="2" height="50" fill="black"/><rect x="82" y="5" width="2" height="50" fill="black"/><rect x="86" y="5" width="2" height="50" fill="black"/><rect x="96" y="5" width="2" height="50" fill="black"/><rect x="100" y="5" width="2" height="50" fill="black"/><rect x="102" y="5" width="2" height="50" fill="black"/><rect x="106" y="5" width="2" height="50" fill="black"/><rect x="108" y="5" width="2" height="50" fill="black"/><rect x="110" y="5" width="2" height="50" fill="black"/><rect x="112" y="5" width="2" height="50" fill="black"/><rect x="116" y="5" width="2" height="50" fill="black"/><rect x="118" y="5" width="2" height="50" fill="black"/><rect x="124" y="5" width="2" height="50" fill="black"/><rect x="126" y="5" width="2" height="50" fill="black"/><rect x="128" y="5" width="2" height="50" fill="black"/><rect x="132" y="5" width="2" height="50" fill="black"/><rect x="134" y="5" width="2" height="50" fill="black"/><text x="150" y="75" text-anchor="middle" font-family="Arial, sans-serif" font-size="12" fill="black">Sir Thon</text></svg>